<?xml version="1.0" encoding="UTF-8"?>
<svg id="Layer_2" data-name="Layer 2" xmlns="http://www.w3.org/2000/svg" viewBox="0 0 386.72 424.21" fill="currentColor" role="img" aria-label="Creature 2">
  <g id="Layer_1-2" data-name="Layer 1">
    <g id="_5mvWSh" data-name="5mvWSh">
      <path d="M327.73,318.97c-13.79,37.34-38.04,70.38-72.97,89.91-32.61,18.24-70.08,20.38-104.43,5.51-40.66-17.6-70.22-54.43-84.98-95.72-24.06-6.43-39.5-28.57-37.28-53.2.55-6.08,2.74-11.37,5.37-16.63-11.75-4.56-20.31-14.35-23.19-24.43-3.87-13.57-.31-26.58,9.06-36.37-14.67-10.69-22.44-28.16-18.14-46.52,3.84-16.39,17.22-30.32,35.48-33.8-8.13-17.76-4.61-36.93,8.18-50.67,13.63-14.64,33.97-18.49,52-10.48.37-21.56,14.42-40.32,35.18-45.33,19.15-4.61,37.77,3.96,48.86,20.33C191.05,7.5,207.43-.4,225.03,1.9c16.08,2.11,30.01,13.41,36.75,29.22,15.25-6.78,31.5-6.16,44.95,2.93,12.07,8.16,20.08,22.48,19.42,38.96,20.78-1.16,38.76,12.9,43.24,33.6,2.71,12.52-.69,24.69-7.25,35.57,12.3,5.29,20.58,15.37,23.5,28.14,4.05,17.72-3.58,35.56-19.48,45.29,8.56,12.17,2.73,26.74-3.11,36.88,8.93,30.06-5.28,58.22-35.32,66.48ZM316.32,310.59c1.04-3.06,2.81-4.45,6.16-4.99,20.04-3.26,33.37-23.78,28.06-43.25-1.27-4.65-4.74-9.84-9.25-10.32-7.5-.81-5.09,12.4-13.35,10.59-7.26-1.59-9.07-14.44-4.19-25.18l-1.71-15.59c-19.22-4.51-31-22.58-28.49-42.45-26.17,10.88-51.28-2.76-58.6-28.94-9.98,10.65-23.12,15.5-37.36,13.68-12.24-1.57-24.01-9.23-31.31-21.39-12.02,19.19-34.82,25.74-54.47,16.54,1.49,22.95-15.26,41.3-37.74,42.76,1.84,9.7,2.49,18.96-2.9,26.32-2.73,3.73-3.06,7.07-1.3,11.54,2.67,6.79,3.05,14.61-1.7,20.5-1.3,1.61-5.14,2.57-7.2,1.98-3.82-1.1-3.13-9.9-8.39-10.67-6.6-.98-15.88,15.29-7.61,33.16,5.01,10.83,14.11,19,26.29,20.66,3.04.41,5.17,2.05,6.09,5.02,11.08,36.13,36.74,70.07,70.61,87.32,72.9,37.14,143.79-15.14,168.36-87.27Z"/>
    </g>
  </g>
</svg>
