<?xml version="1.0" encoding="UTF-8"?>
<svg id="Layer_2" data-name="Layer 2" xmlns="http://www.w3.org/2000/svg" viewBox="0 0 394.64 402.72" fill="currentColor" role="img" aria-label="Creature 1">
  <g id="Layer_1-2" data-name="Layer 1">
    <g id="iHPStY">
      <path d="M268.16,370.05c-42.42,35-98.99,35.72-142.2.02-10.33,18.29-30.49,32.67-52.98,32.53l3.71-12.11c1.28-8.97-.21-17.8-3.28-26.76-12.34,8.11-26.53,12.43-41.18,7.82,17.71-14.45,19.19-33.93,16.93-55.11-2.22-11.31-5.76-21.76-9.3-32.73l-9.97-30.93c-8.72,7.47-18.61,12.11-29.89,11.4,10.8-14.17,14.12-31.2,14.15-48.97.04-23.19,1.91-45.35,6.03-68.09,6.36-35.07,21.58-66.38,45.21-92.96C91.37,24.93,126.1,5.63,165.11.85c18.08-2.21,35.51-.14,52.28,6.56,45.69-6.87,86.48,15.2,115.32,49.61,21.13,25.22,34.2,55.09,40.7,87.35,3.63,18.02,4.81,35.43,5.33,53.85.65,22.7,1.76,48.41,15.91,66.03-11.35.63-21.7-4.08-30.34-11.44l-9.7,30.55c-3.29,10.36-7,20.22-8.86,30.98-3.61,20.82-1.36,43.44,16.56,57.19-14.37,4.7-28.55.59-41.28-7.88-4.99,12.79-5.05,26.55.42,39.06-22.86-.62-41.53-13.37-53.28-32.68ZM264.18,356.38c35.94-34.31,52.45-88.75,46.45-137.14-.61-4.89-1.92-8.8-4.57-12.86-52.33-16.28-81.62-53.6-101.72-103.87-19.22,52.03-63.93,87.23-115.02,104.47l-5.5,6.67c-8.53,54.28,10.72,117.89,55.33,150.58,38.45,28.18,90.25,25.34,125.03-7.86Z"/>
    </g>
  </g>
</svg>
